<svg width="396" height="49" viewBox="0 0 396 49" fill="none" xmlns="http://www.w3.org/2000/svg">
<g clip-path="url(#clip0)">
<path d="M31.9405 47.9911V28.9949H8.86022V47.9911H0V1.00891H8.86022V20.8032H31.9405V1.00891H40.7329V47.9911H31.9405Z" fill="#103E46"/>
<path d="M95.8289 39.0615H71.2657L67.2458 47.9233H57.6479L78.7257 0.941162H88.3914L109.469 47.9233H99.7885L95.8289 39.0615ZM83.5586 10.8044L74.8263 30.8095H92.2758L83.5586 10.8044Z" fill="#103E46"/>
<path d="M136.426 0.941162V39.7316H160.591V47.9233H127.574V0.941162H136.426Z" fill="#103E46"/>
<path d="M217.629 42.0129C212.796 46.7789 206.555 49 199.78 49C182.331 49 174.939 36.9533 174.886 24.7635C174.833 12.5738 182.798 1.60037e-05 199.78 1.60037e-05C202.987 -0.00366978 206.163 0.62933 209.123 1.86232C212.084 3.09531 214.77 4.90377 217.027 7.18287L211.117 12.89C208.064 9.98497 203.994 8.39283 199.78 8.4553C188.436 8.4553 183.535 16.9106 183.603 24.7635C183.671 32.6165 188.195 40.6577 199.78 40.6577C204.18 40.6276 208.403 38.9236 211.591 35.8917L217.629 42.0129Z" fill="#103E46"/>
<path d="M255.08 20.3288L267.561 0.941162H278.228V1.34021L259.506 28.5281V47.9233H250.676V28.5281L232.609 1.34021V0.941162H243.148L255.08 20.3288Z" fill="#103E46"/>
<path d="M339.022 24.7033C338.894 36.8479 331.442 49 314.933 49C298.425 49 290.776 37.1189 290.776 24.7635C290.776 12.4081 298.696 0 314.933 0C331.171 0 339.158 12.4156 339.022 24.7033ZM299.501 24.899C299.704 32.6165 303.86 40.876 314.933 40.876C326.007 40.876 330.169 32.5939 330.305 24.8313C330.433 16.9106 326.007 8.05624 314.933 8.05624C303.86 8.05624 299.298 16.9783 299.501 24.899Z" fill="#103E46"/>
<path d="M387.14 0.873413H396V47.9234H390.497V47.9911L365.806 16.2405V47.9234H356.946V0.941176H364.127L387.14 30.0716V0.873413Z" fill="#103E46"/>
</g>
<defs>
<clipPath id="clip0">
<rect width="396" height="49" fill="white"/>
</clipPath>
</defs>
</svg>
