<svg width="1440" height="167" viewBox="0 0 1440 167" fill="none" xmlns="http://www.w3.org/2000/svg">
<mask id="mask0" mask-type="alpha" maskUnits="userSpaceOnUse" x="0" y="0" width="1440" height="167">
<rect width="1440" height="167" fill="#C4C4C4"/>
</mask>
<g mask="url(#mask0)">
</g>
<g clip-path="url(#clip0)">
<path d="M83.664 186.191V114.471H-3.52805V186.191H-37V8.80908H-3.52805V83.5425H83.664V8.80908H116.88V186.191H83.664Z" fill="#F5F2F8"/>
<path d="M325.02 152.477H232.226L217.04 185.935H180.781L260.409 8.55347H296.923L376.551 185.935H339.979L325.02 152.477ZM278.666 45.7922L245.677 121.322H311.598L278.666 45.7922Z" fill="#F5F2F8"/>
<path d="M478.389 8.55347V155.007H569.676V185.935H444.945V8.55347H478.389Z" fill="#F5F2F8"/>
<path d="M785.153 163.62C766.896 181.614 743.32 190 717.726 190C651.806 190 623.879 144.518 623.68 98.495C623.481 52.4724 653.569 5.00006 717.726 5.00006C729.84 4.98614 741.837 7.37604 753.021 12.0312C764.205 16.6864 774.354 23.5142 782.878 32.119L760.554 53.6663C749.02 42.6983 733.644 36.6872 717.726 36.9231C674.869 36.9231 656.356 68.8461 656.612 98.495C656.868 128.144 673.959 158.503 717.726 158.503C734.346 158.39 750.299 151.956 762.345 140.509L785.153 163.62Z" fill="#F5F2F8"/>
<path d="M926.634 81.7518L973.785 8.55347H1014.08V10.0601L943.356 112.708V185.935H909.998V112.708L841.746 10.0601V8.55347H881.559L926.634 81.7518Z" fill="#F5F2F8"/>
<path d="M1243.75 98.2675C1243.27 144.12 1215.11 190 1152.75 190C1090.38 190 1061.49 145.143 1061.49 98.4949C1061.49 51.847 1091.41 5 1152.75 5C1214.09 5 1244.26 51.8754 1243.75 98.2675ZM1094.45 99.0066C1095.22 128.144 1110.91 159.328 1152.75 159.328C1194.58 159.328 1210.31 128.059 1210.82 98.7508C1211.3 68.846 1194.58 35.4164 1152.75 35.4164C1110.91 35.4164 1093.68 69.1019 1094.45 99.0066Z" fill="#F5F2F8"/>
<path d="M1425.53 8.29761H1459V185.935H1438.21V186.191L1344.93 66.3162V185.935H1311.46V8.55345H1338.59L1425.53 118.536V8.29761Z" fill="#F5F2F8"/>
</g>
<defs>
<clipPath id="clip0">
<rect width="1496" height="185" fill="white" transform="translate(-37 5)"/>
</clipPath>
</defs>
</svg>
